<?xml version="1.0" encoding="utf-8"?>
<!-- Generator: Adobe Illustrator 21.0.2, SVG Export Plug-In . SVG Version: 6.00 Build 0)  -->
<svg version="1.1" id="Layer_1" xmlns="http://www.w3.org/2000/svg" xmlns:xlink="http://www.w3.org/1999/xlink" x="0px" y="0px"
	 viewBox="0 0 800 600" style="enable-background:new 0 0 800 600;" xml:space="preserve">
<style type="text/css">
	.st0{fill-rule:evenodd;clip-rule:evenodd;fill:none;}
</style>
<path class="st0" d="M406,116c0,0-2.8-1.6-8,2c-5.2,3.6-5.4,2.3-6,2c-0.6-0.3-2.9-3.5-9,2c0,0-9.3-0.4-14,4c-4.7,4.4-5,6-5,6
	s-12,2.8-20,26c-8,23.2-6.8,18.6-8,20c-1.2,1.4-13.2,24.4-16,32c-2.8,7.6-21,44-21,44l-14,33l-11,30c0,0-5.9,14.4-6,18
	c-0.1,3.6,0,5,0,5s3.2,6.8,9,1c0,0,0.3-1,5-1c4.7,0,13,0,13,0s39.8,1.7,50,3c10.2,1.3,11.7,0.9,17,0l21-11l-14,19l-10,14l-8,9
	c0,0-0.8,0.7-1,1c-0.2,0.3-1,2-1,2l-2,1l-1,1v1v3h-1c0,0-0.8,1.6-1,2c-0.2,0.4-20,29-20,29l-12,19l-10,17l-4,5l-1,4l-6,5v3l1,2l-2,2
	v1l-1,1h-2v1l1,1l-14,30l-1,2c0,0,0.5,2.5-8,16c0,0-2.7,4.4-3,6s5.6-6.5,6-8c0.4-1.5,6-13,6-13v1l1,1v2l0,0l2-1l1-1
	c0,0,8.9-9.6,13-16l1-1h1l-6,11v1v1l1-1l0,0h1c0,0,0.7-1.1,0,0c-0.7,1.1-1,1-1,1s0.3,0.8,0,1c-0.3,0.2,0,0,0,0h1l4-4h1l1-1l-1,2l0,0
	c0,0,1.1,0.9,1,1c-0.1,0.1-2,3-2,3v1h2v-2l4-6h1v1l-6,10l19-21l11-11v3c0,0,3.7-7.8,6-9c0,0,7.1-4.2,7-5c-0.1-0.8,4.7-8.7,13-15v-1
	l-9,7l58-63l24-26h1h1l1-1l1-2l2-3l4-4l1,1v3h2l3-4v-4c0,0,2.6-5.3,7-7c0,0,3.9-2.3,5-6c0,0,9.6-7.8,13-15l11-11l1-1l2-1l21-22
	l31-34c0,0,8.4-6.6,6-15c-2.4-8.4-90,9-90,9h-26c0,0-18.9,7.4-23,11l1-3c0,0,13.4-20.5,22-30l12-16l1,1l-3,6c0,0,7.6-2.2,9-12v-3
	l8-9h1h1h2l2-4c0,0,8.9-6.1,14-16v-2c0,0,32.4-33.4,68-62c0,0,5.1-7.1,21-18c0,0,0,0.3,2-4s12.9-6.8,14-8s-20.1,3.6-26,8
	c-5.9,4.4,7.9-7.5,8-8c0.1-0.5-11,1-11,1h-1l2-2v-1l-10,5h-1h-4c0,0-19.8,9.2-27,14c0,0,3.2-3.6,6-6c2.8-2.4-22,12-22,12l10.9-9
	l0.1,0c0,0,2.1-4.1-3-3c-3.7,1.7-11,7-11,7s2.3-6.8,10-11c-0.4,0-6.7,2.7-12.1,5.4c-5.5,2.8-9.9,5.6-9.9,5.6s-1.7-0.9,6-6
	c0,0-16.2,10-17,10c-0.8,0,2-3,2-3s-8.9,6.1-10,7c-1.1,0.9-2,1-2,1l1-2c0,0-11.8,7.5-19,16c0,0-4.8,2.7-8,3c-3.2,0.3,16-15,16-15
	s0.5-1.1-2-1c0,0-3.1,5.6-18,15c0,0-4.6-0.1,0-4c4.6-3.9,10-8.4,12-13l-12,7c0,0-7.9,7.6-9,7c-1.1-0.6-1-3-1-3l1-1c0,0-0.8-1.3,0-2
	s1-2,1-2h-2l-1,2h-1h-1c0,0,0.2-0.9,0-1c-0.2-0.1-1-1-1-1V116z"/>
</svg>
